<?xml version="1.0" encoding="UTF-8"?>
<svg width="512" height="512" viewBox="0 0 512 512" fill="none" xmlns="http://www.w3.org/2000/svg">
  <rect width="512" height="512" rx="128" fill="#0EA5E9"/>
  <path d="M256 128C179.309 128 128 179.309 128 256C128 332.691 179.309 384 256 384C332.691 384 384 332.691 384 256C384 179.309 332.691 128 256 128ZM256 352C197.019 352 160 314.981 160 256C160 197.019 197.019 160 256 160C314.981 160 352 197.019 352 256C352 314.981 314.981 352 256 352Z" fill="white"/>
  <path d="M256 192C214.654 192 192 214.654 192 256C192 297.346 214.654 320 256 320C297.346 320 320 297.346 320 256C320 214.654 297.346 192 256 192ZM256 288C232.327 288 224 279.673 224 256C224 232.327 232.327 224 256 224C279.673 224 288 232.327 288 256C288 279.673 279.673 288 256 288Z" fill="white"/>
</svg> 